<svg width="226" height="46" viewBox="0 0 226 46" fill="none" xmlns="http://www.w3.org/2000/svg">
<rect width="226" height="46" rx="4" fill="#6610F2"/>
<path d="M61.0175 18.1455L57.37 29H54.8124L59.5936 16.2031H61.2284L61.0175 18.1455ZM64.0673 29L60.4022 18.1455L60.1825 16.2031H61.8261L66.6337 29H64.0673ZM63.9003 24.2451V26.1523H57.036V24.2451H63.9003ZM70.2281 21.3184V32.6562H67.8989V19.4902H70.0523L70.2281 21.3184ZM76.3364 24.1484V24.333C76.3364 25.0244 76.2544 25.666 76.0904 26.2578C75.9322 26.8438 75.6978 27.3564 75.3872 27.7959C75.0767 28.2295 74.69 28.5693 74.2271 28.8154C73.77 29.0557 73.2427 29.1758 72.645 29.1758C72.0591 29.1758 71.5493 29.0645 71.1157 28.8418C70.6822 28.6133 70.3159 28.291 70.0171 27.875C69.7183 27.459 69.4781 26.9756 69.2964 26.4248C69.1206 25.8682 68.9888 25.2617 68.9009 24.6055V24.0166C68.9888 23.3193 69.1206 22.6865 69.2964 22.1182C69.4781 21.5439 69.7183 21.0488 70.0171 20.6328C70.3159 20.2109 70.6792 19.8857 71.107 19.6572C71.5406 19.4287 72.0474 19.3145 72.6275 19.3145C73.231 19.3145 73.7613 19.4287 74.2183 19.6572C74.6812 19.8857 75.0708 20.2139 75.3872 20.6416C75.7036 21.0693 75.9409 21.5791 76.0991 22.1709C76.2573 22.7627 76.3364 23.4219 76.3364 24.1484ZM74.0073 24.333V24.1484C74.0073 23.7266 73.9693 23.3369 73.8931 22.9795C73.8169 22.6162 73.6997 22.2998 73.5415 22.0303C73.3833 21.7549 73.1782 21.541 72.9263 21.3887C72.6743 21.2363 72.3697 21.1602 72.0122 21.1602C71.6548 21.1602 71.3472 21.2188 71.0894 21.3359C70.8316 21.4531 70.6206 21.6201 70.4566 21.8369C70.2925 22.0537 70.1636 22.3115 70.0698 22.6104C69.982 22.9033 69.9234 23.2285 69.8941 23.5859V25.0449C69.9468 25.4785 70.0493 25.8682 70.2017 26.2139C70.354 26.5596 70.5767 26.835 70.8697 27.04C71.1685 27.2451 71.5552 27.3477 72.0298 27.3477C72.3872 27.3477 72.6919 27.2686 72.9439 27.1104C73.1958 26.9521 73.4009 26.7354 73.5591 26.46C73.7173 26.1787 73.8316 25.8564 73.9019 25.4932C73.9722 25.1299 74.0073 24.7432 74.0073 24.333ZM80.7131 21.3184V32.6562H78.3839V19.4902H80.5373L80.7131 21.3184ZM86.8214 24.1484V24.333C86.8214 25.0244 86.7394 25.666 86.5754 26.2578C86.4172 26.8438 86.1828 27.3564 85.8722 27.7959C85.5617 28.2295 85.175 28.5693 84.7121 28.8154C84.255 29.0557 83.7277 29.1758 83.13 29.1758C82.5441 29.1758 82.0343 29.0645 81.6007 28.8418C81.1672 28.6133 80.8009 28.291 80.5021 27.875C80.2033 27.459 79.9631 26.9756 79.7814 26.4248C79.6056 25.8682 79.4738 25.2617 79.3859 24.6055V24.0166C79.4738 23.3193 79.6056 22.6865 79.7814 22.1182C79.9631 21.5439 80.2033 21.0488 80.5021 20.6328C80.8009 20.2109 81.1642 19.8857 81.592 19.6572C82.0256 19.4287 82.5324 19.3145 83.1125 19.3145C83.716 19.3145 84.2463 19.4287 84.7033 19.6572C85.1662 19.8857 85.5558 20.2139 85.8722 20.6416C86.1886 21.0693 86.4259 21.5791 86.5841 22.1709C86.7423 22.7627 86.8214 23.4219 86.8214 24.1484ZM84.4923 24.333V24.1484C84.4923 23.7266 84.4543 23.3369 84.3781 22.9795C84.3019 22.6162 84.1847 22.2998 84.0265 22.0303C83.8683 21.7549 83.6632 21.541 83.4113 21.3887C83.1593 21.2363 82.8547 21.1602 82.4972 21.1602C82.1398 21.1602 81.8322 21.2188 81.5744 21.3359C81.3166 21.4531 81.1056 21.6201 80.9416 21.8369C80.7775 22.0537 80.6486 22.3115 80.5548 22.6104C80.467 22.9033 80.4084 23.2285 80.3791 23.5859V25.0449C80.4318 25.4785 80.5343 25.8682 80.6867 26.2139C80.839 26.5596 81.0617 26.835 81.3547 27.04C81.6535 27.2451 82.0402 27.3477 82.5148 27.3477C82.8722 27.3477 83.1769 27.2686 83.4289 27.1104C83.6808 26.9521 83.8859 26.7354 84.0441 26.46C84.2023 26.1787 84.3166 25.8564 84.3869 25.4932C84.4572 25.1299 84.4923 24.7432 84.4923 24.333ZM91.3387 15.5V29H89.0096V15.5H91.3387ZM96.6996 27.9453L99.2485 19.4902H101.736L97.9213 30.4414C97.8334 30.6758 97.7192 30.9307 97.5786 31.2061C97.4438 31.4814 97.2621 31.7422 97.0336 31.9883C96.8051 32.2402 96.518 32.4453 96.1723 32.6035C95.8325 32.7617 95.4194 32.8408 94.933 32.8408C94.7221 32.8408 94.5346 32.8262 94.3705 32.7969C94.2065 32.7676 94.0336 32.7295 93.852 32.6826V30.9424C93.9106 30.9482 93.978 30.9512 94.0541 30.9512C94.1362 30.957 94.2065 30.96 94.2651 30.96C94.6049 30.96 94.8862 30.9189 95.1088 30.8369C95.3315 30.7607 95.5102 30.6348 95.645 30.459C95.7856 30.2891 95.9028 30.0664 95.9965 29.791L96.6996 27.9453ZM95.4428 19.4902L97.5961 26.4951L97.9741 28.9473L96.3745 29.2373L92.9379 19.4902H95.4428ZM111.218 27.2422L113.433 19.4902H115.859L112.598 29H111.122L111.218 27.2422ZM109.601 19.4902L111.842 27.2598L111.922 29H110.436L107.167 19.4902H109.601ZM119.902 19.4902V29H117.573V19.4902H119.902ZM117.414 17.0029C117.414 16.6572 117.532 16.3701 117.766 16.1416C118.006 15.9131 118.328 15.7988 118.733 15.7988C119.137 15.7988 119.456 15.9131 119.691 16.1416C119.931 16.3701 120.051 16.6572 120.051 17.0029C120.051 17.3428 119.931 17.627 119.691 17.8555C119.456 18.084 119.137 18.1982 118.733 18.1982C118.328 18.1982 118.006 18.084 117.766 17.8555C117.532 17.627 117.414 17.3428 117.414 17.0029ZM127.715 26.9785V22.5928C127.715 22.2705 127.659 21.9922 127.548 21.7578C127.437 21.5234 127.267 21.3418 127.038 21.2129C126.81 21.084 126.52 21.0195 126.168 21.0195C125.857 21.0195 125.585 21.0723 125.351 21.1777C125.122 21.2832 124.946 21.4326 124.823 21.626C124.7 21.8135 124.639 22.0303 124.639 22.2764H122.31C122.31 21.8838 122.403 21.5117 122.591 21.1602C122.778 20.8027 123.045 20.4863 123.391 20.2109C123.742 19.9297 124.161 19.71 124.647 19.5518C125.14 19.3936 125.69 19.3145 126.3 19.3145C127.021 19.3145 127.662 19.4375 128.225 19.6836C128.793 19.9238 129.238 20.2871 129.561 20.7734C129.889 21.2598 130.053 21.8721 130.053 22.6104V26.7588C130.053 27.2334 130.082 27.6406 130.141 27.9805C130.205 28.3145 130.299 28.6045 130.422 28.8506V29H128.058C127.946 28.7598 127.861 28.4551 127.803 28.0859C127.744 27.7109 127.715 27.3418 127.715 26.9785ZM128.04 23.208L128.058 24.5879H126.59C126.227 24.5879 125.907 24.626 125.632 24.7021C125.356 24.7725 125.131 24.8779 124.955 25.0186C124.779 25.1533 124.647 25.3174 124.56 25.5107C124.472 25.6982 124.428 25.9121 124.428 26.1523C124.428 26.3867 124.48 26.5977 124.586 26.7852C124.697 26.9727 124.855 27.1221 125.061 27.2334C125.271 27.3389 125.518 27.3916 125.799 27.3916C126.209 27.3916 126.566 27.3096 126.871 27.1455C127.176 26.9756 127.413 26.7705 127.583 26.5303C127.753 26.29 127.844 26.0615 127.855 25.8447L128.523 26.8467C128.441 27.0869 128.318 27.3418 128.154 27.6113C127.99 27.8809 127.779 28.1328 127.521 28.3672C127.264 28.6016 126.953 28.7949 126.59 28.9473C126.227 29.0996 125.805 29.1758 125.324 29.1758C124.709 29.1758 124.158 29.0527 123.672 28.8066C123.186 28.5605 122.802 28.2236 122.521 27.7959C122.239 27.3682 122.099 26.8818 122.099 26.3369C122.099 25.833 122.192 25.3877 122.38 25.001C122.567 24.6143 122.846 24.2891 123.215 24.0254C123.584 23.7559 124.041 23.5537 124.586 23.4189C125.137 23.2783 125.767 23.208 126.476 23.208H128.04ZM147.507 22.3818V27.3652C147.32 27.6055 147.024 27.8662 146.619 28.1475C146.221 28.4287 145.699 28.6719 145.055 28.877C144.41 29.0762 143.619 29.1758 142.682 29.1758C141.867 29.1758 141.123 29.041 140.449 28.7715C139.776 28.4961 139.196 28.0947 138.709 27.5674C138.223 27.04 137.848 26.3955 137.584 25.6338C137.321 24.8721 137.189 24.002 137.189 23.0234V22.1797C137.189 21.2012 137.312 20.3311 137.558 19.5693C137.81 18.8076 138.167 18.1631 138.63 17.6357C139.099 17.1084 139.658 16.707 140.309 16.4316C140.965 16.1562 141.698 16.0186 142.506 16.0186C143.59 16.0186 144.481 16.1973 145.178 16.5547C145.881 16.9121 146.42 17.4043 146.795 18.0312C147.17 18.6523 147.405 19.3672 147.498 20.1758H145.143C145.078 19.7305 144.949 19.3408 144.756 19.0068C144.563 18.667 144.287 18.4033 143.93 18.2158C143.578 18.0225 143.121 17.9258 142.559 17.9258C142.084 17.9258 141.665 18.0195 141.302 18.207C140.939 18.3945 140.634 18.667 140.388 19.0244C140.142 19.3818 139.954 19.8242 139.825 20.3516C139.702 20.8789 139.641 21.4824 139.641 22.1621V23.0234C139.641 23.709 139.711 24.3184 139.852 24.8516C139.992 25.3789 140.195 25.8242 140.458 26.1875C140.728 26.5449 141.059 26.8174 141.451 27.0049C141.85 27.1865 142.301 27.2773 142.805 27.2773C143.262 27.2773 143.64 27.2393 143.939 27.1631C144.243 27.0811 144.487 26.9844 144.668 26.873C144.85 26.7617 144.991 26.6533 145.09 26.5479V24.1484H142.55V22.3818H147.507ZM155.215 26.9785V22.5928C155.215 22.2705 155.159 21.9922 155.048 21.7578C154.936 21.5234 154.767 21.3418 154.538 21.2129C154.309 21.084 154.019 21.0195 153.668 21.0195C153.357 21.0195 153.085 21.0723 152.851 21.1777C152.622 21.2832 152.446 21.4326 152.323 21.626C152.2 21.8135 152.139 22.0303 152.139 22.2764H149.809C149.809 21.8838 149.903 21.5117 150.091 21.1602C150.278 20.8027 150.545 20.4863 150.891 20.2109C151.242 19.9297 151.661 19.71 152.147 19.5518C152.64 19.3936 153.19 19.3145 153.8 19.3145C154.52 19.3145 155.162 19.4375 155.725 19.6836C156.293 19.9238 156.738 20.2871 157.06 20.7734C157.389 21.2598 157.553 21.8721 157.553 22.6104V26.7588C157.553 27.2334 157.582 27.6406 157.641 27.9805C157.705 28.3145 157.799 28.6045 157.922 28.8506V29H155.558C155.446 28.7598 155.361 28.4551 155.303 28.0859C155.244 27.7109 155.215 27.3418 155.215 26.9785ZM155.54 23.208L155.558 24.5879H154.09C153.726 24.5879 153.407 24.626 153.132 24.7021C152.856 24.7725 152.631 24.8779 152.455 25.0186C152.279 25.1533 152.147 25.3174 152.059 25.5107C151.972 25.6982 151.928 25.9121 151.928 26.1523C151.928 26.3867 151.98 26.5977 152.086 26.7852C152.197 26.9727 152.355 27.1221 152.56 27.2334C152.771 27.3389 153.018 27.3916 153.299 27.3916C153.709 27.3916 154.066 27.3096 154.371 27.1455C154.676 26.9756 154.913 26.7705 155.083 26.5303C155.253 26.29 155.344 26.0615 155.355 25.8447L156.023 26.8467C155.941 27.0869 155.818 27.3418 155.654 27.6113C155.49 27.8809 155.279 28.1328 155.021 28.3672C154.764 28.6016 154.453 28.7949 154.09 28.9473C153.726 29.0996 153.305 29.1758 152.824 29.1758C152.209 29.1758 151.658 29.0527 151.172 28.8066C150.685 28.5605 150.302 28.2236 150.02 27.7959C149.739 27.3682 149.599 26.8818 149.599 26.3369C149.599 25.833 149.692 25.3877 149.88 25.001C150.067 24.6143 150.346 24.2891 150.715 24.0254C151.084 23.7559 151.541 23.5537 152.086 23.4189C152.637 23.2783 153.267 23.208 153.976 23.208H155.54ZM164.504 19.4902V21.1602H159.055V19.4902H164.504ZM160.514 17.1523H162.843V26.2578C162.843 26.5391 162.881 26.7559 162.958 26.9082C163.034 27.0605 163.148 27.1631 163.3 27.2158C163.453 27.2686 163.634 27.2949 163.845 27.2949C163.998 27.2949 164.138 27.2861 164.267 27.2686C164.396 27.251 164.504 27.2334 164.592 27.2158L164.601 28.9561C164.408 29.0205 164.188 29.0732 163.942 29.1143C163.702 29.1553 163.429 29.1758 163.125 29.1758C162.603 29.1758 162.146 29.0879 161.753 28.9121C161.361 28.7305 161.056 28.4404 160.839 28.042C160.623 27.6377 160.514 27.1045 160.514 26.4424V17.1523ZM170.683 29.1758C169.962 29.1758 169.315 29.0586 168.74 28.8242C168.166 28.5898 167.677 28.2646 167.273 27.8486C166.874 27.4268 166.567 26.9375 166.35 26.3809C166.139 25.8184 166.033 25.2148 166.033 24.5703V24.2188C166.033 23.4863 166.139 22.8213 166.35 22.2236C166.561 21.6201 166.86 21.1016 167.246 20.668C167.633 20.2344 168.096 19.9004 168.635 19.666C169.174 19.4316 169.769 19.3145 170.419 19.3145C171.093 19.3145 171.688 19.4287 172.203 19.6572C172.719 19.8799 173.15 20.1963 173.495 20.6064C173.841 21.0166 174.102 21.5088 174.278 22.083C174.453 22.6514 174.541 23.2812 174.541 23.9727V24.9482H167.088V23.3486H172.256V23.1729C172.244 22.8037 172.174 22.4668 172.045 22.1621C171.916 21.8516 171.717 21.6055 171.447 21.4238C171.178 21.2363 170.829 21.1426 170.402 21.1426C170.056 21.1426 169.754 21.2188 169.496 21.3711C169.244 21.5176 169.033 21.7285 168.863 22.0039C168.699 22.2734 168.576 22.5957 168.494 22.9707C168.412 23.3457 168.371 23.7617 168.371 24.2188V24.5703C168.371 24.9688 168.424 25.3379 168.529 25.6777C168.641 26.0176 168.802 26.3135 169.013 26.5654C169.23 26.8115 169.488 27.0049 169.786 27.1455C170.091 27.2803 170.437 27.3477 170.823 27.3477C171.31 27.3477 171.749 27.2539 172.142 27.0664C172.54 26.873 172.886 26.5889 173.179 26.2139L174.348 27.4268C174.149 27.7197 173.879 28.001 173.539 28.2705C173.205 28.54 172.801 28.7598 172.326 28.9297C171.852 29.0938 171.304 29.1758 170.683 29.1758ZM178.733 21.5205V29H176.413V19.4902H178.593L178.733 21.5205ZM178.364 23.9023H177.679C177.684 23.2109 177.778 22.584 177.96 22.0215C178.141 21.459 178.396 20.9756 178.724 20.5713C179.058 20.167 179.454 19.8564 179.911 19.6396C180.368 19.4229 180.878 19.3145 181.44 19.3145C181.897 19.3145 182.31 19.3789 182.68 19.5078C183.049 19.6367 183.365 19.8418 183.629 20.123C183.898 20.4043 184.103 20.7734 184.244 21.2305C184.39 21.6816 184.464 22.2383 184.464 22.9004V29H182.126V22.8828C182.126 22.4492 182.061 22.1064 181.932 21.8545C181.809 21.6025 181.628 21.4238 181.388 21.3184C181.153 21.2129 180.863 21.1602 180.517 21.1602C180.16 21.1602 179.847 21.2334 179.577 21.3799C179.313 21.5205 179.091 21.7168 178.909 21.9688C178.733 22.2207 178.598 22.5107 178.505 22.8389C178.411 23.167 178.364 23.5215 178.364 23.9023ZM186.458 24.3418V24.1572C186.458 23.46 186.558 22.8184 186.757 22.2324C186.957 21.6406 187.247 21.1279 187.627 20.6943C188.008 20.2607 188.474 19.9238 189.025 19.6836C189.576 19.4375 190.203 19.3145 190.906 19.3145C191.621 19.3145 192.253 19.4375 192.804 19.6836C193.361 19.9238 193.83 20.2607 194.21 20.6943C194.591 21.1279 194.881 21.6406 195.081 22.2324C195.28 22.8184 195.379 23.46 195.379 24.1572V24.3418C195.379 25.0332 195.28 25.6748 195.081 26.2666C194.881 26.8525 194.591 27.3652 194.21 27.8047C193.83 28.2383 193.364 28.5752 192.813 28.8154C192.262 29.0557 191.632 29.1758 190.923 29.1758C190.22 29.1758 189.59 29.0557 189.034 28.8154C188.477 28.5752 188.008 28.2383 187.627 27.8047C187.247 27.3652 186.957 26.8525 186.757 26.2666C186.558 25.6748 186.458 25.0332 186.458 24.3418ZM188.779 24.1572V24.3418C188.779 24.7578 188.82 25.1475 188.902 25.5107C188.984 25.874 189.11 26.1934 189.28 26.4688C189.45 26.7441 189.669 26.9609 189.939 27.1191C190.214 27.2715 190.542 27.3477 190.923 27.3477C191.298 27.3477 191.621 27.2715 191.89 27.1191C192.16 26.9609 192.379 26.7441 192.549 26.4688C192.725 26.1934 192.854 25.874 192.936 25.5107C193.018 25.1475 193.059 24.7578 193.059 24.3418V24.1572C193.059 23.7471 193.018 23.3633 192.936 23.0059C192.854 22.6426 192.725 22.3232 192.549 22.0479C192.379 21.7666 192.157 21.5469 191.881 21.3887C191.612 21.2246 191.287 21.1426 190.906 21.1426C190.531 21.1426 190.208 21.2246 189.939 21.3887C189.669 21.5469 189.45 21.7666 189.28 22.0479C189.11 22.3232 188.984 22.6426 188.902 23.0059C188.82 23.3633 188.779 23.7471 188.779 24.1572ZM199.053 19.4902L200.749 22.5137L202.472 19.4902H204.994L202.199 24.1484L205.109 29H202.586L200.767 25.8271L198.939 29H196.416L199.317 24.1484L196.539 19.4902H199.053Z" fill="white"/>
<path fill-rule="evenodd" clip-rule="evenodd" d="M25.5905 34.499C23.9384 34.499 22.4928 34.1946 21.2538 33.586C20.0147 32.999 19.0147 32.1621 18.2539 31.0752L20.6016 28.7275C21.232 29.5101 21.9494 30.097 22.7537 30.4883C23.558 30.8796 24.5254 31.0752 25.6557 31.0752C27.0687 31.0752 28.1882 30.7057 29.0143 29.9666C29.6086 29.4504 29.9892 28.7935 30.1559 27.996H33.7858C33.6632 29.0846 33.3335 30.0566 32.7967 30.9122C32.1011 32.0425 31.1337 32.9229 29.8947 33.5533C28.6556 34.1838 27.2209 34.499 25.5905 34.499ZM33.8401 17.4501V12H30.2533V16.2063V19.6706V23.1517V24.6857C30.2959 24.6211 30.3408 24.5491 30.3885 24.4682C30.708 23.9418 30.6867 23.7293 30.673 23.593C30.6562 23.4247 30.6509 23.3724 31.3119 22.9898C31.714 22.2661 31.784 22.0316 31.8665 21.7555C31.9374 21.5182 32.0174 21.2502 32.3252 20.6145C32.6895 19.2526 32.778 19.0829 32.8256 18.9024C32.8647 18.7544 32.8762 18.5991 32.9897 17.7737C32.986 17.7348 32.9822 17.6957 32.9784 17.6567C32.8766 16.6033 32.7752 15.5553 33.4433 16.7093C33.5908 16.9523 33.7231 17.1988 33.8401 17.4501Z" fill="white"/>
<rect x="32.1406" y="14.8567" width="1.70055" height="5.3712" fill="white"/>
<path d="M25.9049 27.7468C24.4352 27.7468 23.102 27.4004 21.9052 26.7075C20.7084 25.9937 19.7531 25.0383 19.0393 23.8416C18.3464 22.6448 18 21.3116 18 19.8419C18 18.3722 18.3464 17.0495 19.0393 15.8737C19.7531 14.698 20.7084 13.7636 21.9052 13.0708C23.102 12.3569 24.4352 12 25.9049 12C27.3956 12 28.7393 12.4094 29.9361 13.1023C31.1328 13.7951 32.0776 14.7399 32.7705 15.9367C33.4844 17.1125 33.8413 18.3722 33.8413 19.8419C33.8413 21.3116 33.2639 22.6448 32.55 23.8416C31.8572 25.0383 30.9124 25.9937 29.7156 26.7075C28.5189 27.4004 27.3956 27.7468 25.9049 27.7468ZM25.9049 24.4085C26.7657 24.4085 27.5216 24.2195 28.1724 23.8416C28.8443 23.4427 29.3587 22.8968 29.7156 22.2039C30.0935 21.5111 30.2825 20.7237 30.2825 19.8419C30.2825 18.9601 30.0935 18.1832 29.7156 17.5114C29.3377 16.8395 28.8233 16.3146 28.1724 15.9367C27.5216 15.5378 26.7657 15.3383 25.9049 15.3383C25.0651 15.3383 24.3092 15.5378 23.6374 15.9367C22.9865 16.3146 22.4721 16.8395 22.0942 17.5114C21.7372 18.1832 21.5588 18.9601 21.5588 19.8419C21.5588 20.7237 21.7372 21.5111 22.0942 22.2039C22.4721 22.8968 22.9865 23.4427 23.6374 23.8416C24.3092 24.2195 25.0651 24.4085 25.9049 24.4085Z" fill="white"/>
</svg>
